<?xml version="1.0" encoding="utf-8"?>
<!-- Generator: Adobe Illustrator 25.3.1, SVG Export Plug-In . SVG Version: 6.00 Build 0)  -->
<svg version="1.1" id="레이어_1" xmlns="http://www.w3.org/2000/svg" xmlns:xlink="http://www.w3.org/1999/xlink" x="0px"
	 y="0px" viewBox="0 0 171 142" style="enable-background:new 0 0 171 142;" xml:space="preserve">
<style type="text/css">
	.st0{fill:#C8C8C8;}
	.st1{fill:#A7A7CD;}
	.st2{fill:#FFFFFF;stroke:#A7A7CD;stroke-width:1.4173;stroke-miterlimit:10;}
</style>
<circle class="st0" cx="23.1" cy="23.4" r="2.3"/>
<circle class="st1" cx="35.2" cy="30.9" r="4"/>
<circle class="st0" cx="12.7" cy="17.5" r="2.3"/>
<circle class="st0" cx="2.4" cy="11.6" r="2.3"/>
<path class="st2" d="M162.3,29.9L114.1,2.7c-4.9-2.8-10.7-2.5-15.2,0.3c0,0-0.1,0-0.1,0.1c0,0-47.6,27.9-48.1,28.3
	c-1.9,1.3-3.5,2.9-4.7,5.1c-1.2,2.1-1.8,4.4-1.9,6.7c0,0.6,0.5,55.8,0.5,55.8c0,0,0,0.1,0,0.1c-0.1,5.2,2.6,10.3,7.4,13.1l0,0
	l48.7,27.6l0,0c4.6,2.5,10,2.2,14.3-0.1c0.3-0.2,48.2-28.3,48.7-28.7c1.9-1.3,3.6-3,4.8-5.1c1.2-2.1,1.8-4.4,1.9-6.7
	c0-0.6-0.5-56.2-0.5-56.5C169.7,37.4,167,32.6,162.3,29.9C162.3,29.9,162.3,29.9,162.3,29.9C162.3,29.9,162.3,29.9,162.3,29.9z"/>
</svg>
