<?xml version="1.0" encoding="utf-8"?>
<!-- Generator: Adobe Illustrator 25.3.1, SVG Export Plug-In . SVG Version: 6.00 Build 0)  -->
<svg version="1.1" id="레이어_1" xmlns="http://www.w3.org/2000/svg" xmlns:xlink="http://www.w3.org/1999/xlink" x="0px"
	 y="0px" viewBox="0 0 170 142" style="enable-background:new 0 0 170 142;" xml:space="preserve">
<style type="text/css">
	.st0{fill:#C8C8C8;}
	.st1{fill:#A7A7CD;}
	.st2{fill:#FFFFFF;stroke:#A7A7CD;stroke-width:1.4173;stroke-miterlimit:10;}
</style>
<circle class="st0" cx="147.3" cy="119.4" r="2.3"/>
<circle class="st1" cx="135.3" cy="111.8" r="4"/>
<circle class="st0" cx="157.5" cy="125.4" r="2.3"/>
<circle class="st0" cx="167.7" cy="131.3" r="2.3"/>
<path class="st2" d="M8.2,111.6l47.9,27.7c4.9,2.8,10.7,2.6,15.2-0.1c0,0,0.1,0,0.1-0.1c0,0,47.8-27.5,48.4-27.8
	c1.9-1.2,3.5-2.9,4.8-5c1.2-2.1,1.9-4.4,2-6.6c0-0.6,0.1-55.8,0.1-55.8c0,0,0-0.1,0-0.1c0.1-5.2-2.5-10.3-7.3-13.2l0,0L70.9,2.5l0,0
	c-4.6-2.5-10-2.3-14.3,0c-0.3,0.2-48.5,27.9-49,28.2C5.7,32,4,33.7,2.8,35.8c-1.2,2.1-1.9,4.4-2,6.7C0.8,43,0.7,98.6,0.7,99
	C0.8,104,3.5,108.9,8.2,111.6C8.1,111.6,8.2,111.6,8.2,111.6C8.2,111.6,8.2,111.6,8.2,111.6z"/>
</svg>
