<?xml version="1.0" encoding="utf-8"?>
<!-- Generator: Adobe Illustrator 25.3.1, SVG Export Plug-In . SVG Version: 6.00 Build 0)  -->
<svg version="1.1" id="레이어_1" xmlns="http://www.w3.org/2000/svg" xmlns:xlink="http://www.w3.org/1999/xlink" x="0px"
	 y="0px" viewBox="0 0 179.5 198.7" style="enable-background:new 0 0 179.5 198.7;" xml:space="preserve">
<style type="text/css">
	.st0{fill:#FFFFFF;stroke:#7D4698;stroke-width:17.0079;stroke-miterlimit:10;}
</style>
<path class="st0" d="M171,135.1V63.6c0-7.3-4.1-13.6-10-16.9c0,0-0.1,0-0.1-0.1c0,0-61.7-35.7-62.4-36c-2.6-1.3-5.5-2.1-8.7-2.1
	c-3.1,0-6.1,0.8-8.7,2.1c-0.7,0.4-62.4,36-62.4,36c0,0-0.1,0-0.1,0.1c-5.9,3.2-9.9,9.5-10,16.6l0,72.3c0.2,6.8,3.8,12.7,9.3,16
	c0.4,0.2,62.6,36.2,63.2,36.5c2.6,1.3,5.6,2.1,8.8,2.1c3.2,0,6.1-0.8,8.8-2.1c0.6-0.3,62.8-36.3,63.2-36.5
	C167.2,148.2,171,142.1,171,135.1C171,135.1,171,135.1,171,135.1C171,135.1,171,135.1,171,135.1z"/>
</svg>
