<?xml version="1.0" encoding="utf-8"?>
<!-- Generator: Adobe Illustrator 25.3.1, SVG Export Plug-In . SVG Version: 6.00 Build 0)  -->
<svg version="1.1" id="레이어_1" xmlns="http://www.w3.org/2000/svg" xmlns:xlink="http://www.w3.org/1999/xlink" x="0px"
	 y="0px" viewBox="0 0 170.3 142" style="enable-background:new 0 0 170.3 142;" xml:space="preserve">
<style type="text/css">
	.st0{fill:#C8C8C8;}
	.st1{fill:#A7A7CD;}
	.st2{fill:#FFFFFF;stroke:#A7A7CD;stroke-width:1.4173;stroke-miterlimit:10;}
</style>
<circle class="st0" cx="147.3" cy="22.6" r="2.3"/>
<circle class="st1" cx="135.3" cy="30.2" r="4"/>
<circle class="st0" cx="157.6" cy="16.6" r="2.3"/>
<circle class="st0" cx="167.9" cy="10.6" r="2.3"/>
<path class="st2" d="M8.2,30.5L56.1,2.7C61-0.1,66.8,0.1,71.3,2.9c0,0,0.1,0,0.1,0.1c0,0,47.8,27.5,48.4,27.8c1.9,1.2,3.5,2.9,4.8,5
	c1.2,2.1,1.9,4.4,2,6.6c0,0.6,0.1,55.8,0.1,55.8c0,0,0,0.1,0,0.1c0.1,5.2-2.5,10.3-7.3,13.2l0,0l-48.5,28.1l0,0
	c-4.6,2.5-10,2.3-14.3,0c-0.3-0.2-48.5-27.9-49-28.2c-1.9-1.2-3.6-2.9-4.8-5.1c-1.2-2.1-1.9-4.4-2-6.7c0-0.6-0.1-56.2-0.1-56.5
	C0.8,38,3.5,33.2,8.2,30.5C8.1,30.5,8.2,30.5,8.2,30.5C8.2,30.5,8.2,30.5,8.2,30.5z"/>
</svg>
