<?xml version="1.0" encoding="utf-8"?>
<!-- Generator: Adobe Illustrator 25.3.1, SVG Export Plug-In . SVG Version: 6.00 Build 0)  -->
<svg version="1.1" id="레이어_1" xmlns="http://www.w3.org/2000/svg" xmlns:xlink="http://www.w3.org/1999/xlink" x="0px"
	 y="0px" viewBox="0 0 127.2 193.9" style="enable-background:new 0 0 127.2 193.9;" xml:space="preserve">
<style type="text/css">
	.st0{fill:#C8C8C8;}
	.st1{fill:#A7A7CD;}
	.st2{fill:#FFFFFF;stroke:#A7A7CD;stroke-width:1.4173;stroke-miterlimit:10;}
</style>
<circle class="st0" cx="63.6" cy="26.2" r="2.3"/>
<circle class="st1" cx="63.6" cy="39.8" r="4"/>
<circle class="st0" cx="63.6" cy="14.3" r="2.3"/>
<circle class="st0" cx="63.6" cy="2.3" r="2.3"/>
<path class="st2" d="M126.5,150.5V95.2c0-5.7-3.1-10.6-7.8-13.1c0,0-0.1,0-0.1-0.1c0,0-47.7-27.6-48.3-27.9c-2-1-4.3-1.6-6.7-1.6
	c-2.4,0-4.7,0.6-6.7,1.6C56.3,54.4,8.6,82,8.6,82c0,0-0.1,0-0.1,0.1c-4.6,2.5-7.7,7.3-7.8,12.9h0v56h0c0.1,5.2,3,9.8,7.2,12.4
	c0.3,0.2,48.4,28,48.9,28.2c2,1,4.3,1.6,6.8,1.6c2.4,0,4.7-0.6,6.8-1.6c0.5-0.3,48.7-28.1,49-28.3
	C123.6,160.7,126.5,155.9,126.5,150.5C126.5,150.5,126.5,150.5,126.5,150.5C126.5,150.5,126.5,150.5,126.5,150.5z"/>
</svg>
