<?xml version="1.0" encoding="utf-8"?>
<!-- Generator: Adobe Illustrator 25.3.1, SVG Export Plug-In . SVG Version: 6.00 Build 0)  -->
<svg version="1.1" id="레이어_1" xmlns="http://www.w3.org/2000/svg" xmlns:xlink="http://www.w3.org/1999/xlink" x="0px"
	 y="0px" viewBox="0 0 133.4 266.9" style="enable-background:new 0 0 133.4 266.9;" xml:space="preserve">
<style type="text/css">
	.st0{fill:#7D4698;}
	.st1{fill:#C8C8C8;}
	.st2{fill:#A7A7CD;}
</style>
<circle class="st0" cx="66.7" cy="102.2" r="5.9"/>
<circle class="st1" cx="66.7" cy="19" r="2.3"/>
<circle class="st1" cx="66.7" cy="35.6" r="2.3"/>
<circle class="st1" cx="66.7" cy="2.3" r="2.3"/>
<circle class="st1" cx="66.7" cy="52.3" r="2.3"/>
<circle class="st1" cx="66.7" cy="68.9" r="2.3"/>
<circle class="st1" cx="66.7" cy="85.5" r="2.3"/>
<path class="st2" d="M133.4,221.6v-58.7c0-6-3.3-11.2-8.2-13.9c0,0-0.1,0-0.1-0.1c0,0-50.6-29.3-51.2-29.6c-2.1-1.1-4.6-1.7-7.1-1.7
	c-2.6,0-5,0.6-7.2,1.7C59,119.7,8.3,149,8.3,149c0,0-0.1,0-0.1,0.1c-4.8,2.7-8.1,7.8-8.2,13.7h0v59.4h0c0.1,5.6,3.2,10.4,7.6,13.1
	c0.3,0.2,51.4,29.7,51.9,30c2.2,1.1,4.6,1.7,7.2,1.7c2.6,0,5-0.6,7.2-1.7c0.5-0.3,51.6-29.8,51.9-30
	C130.4,232.4,133.4,227.4,133.4,221.6C133.4,221.7,133.4,221.7,133.4,221.6C133.4,221.7,133.4,221.6,133.4,221.6z"/>
</svg>
