<?xml version="1.0" encoding="utf-8"?>
<!-- Generator: Adobe Illustrator 25.3.1, SVG Export Plug-In . SVG Version: 6.00 Build 0)  -->
<svg version="1.1" id="레이어_1" xmlns="http://www.w3.org/2000/svg" xmlns:xlink="http://www.w3.org/1999/xlink" x="0px"
	 y="0px" viewBox="0 0 894.6 1000.6" style="enable-background:new 0 0 894.6 1000.6;" xml:space="preserve">
<style type="text/css">
	.st0{opacity:0.1;}
	.st1{fill:#A7A7CD;}
	.st2{opacity:0.2;}
</style>
<g class="st0">
	<g>
		<g>
			<path class="st1" d="M894.6,697.2V303.5c0-40.2-22.3-75.2-55.2-93.3c-0.2-0.1-0.4-0.2-0.6-0.4c0,0-339.6-196.3-343.7-198.4
				C480.7,4.2,464.5,0,447.3,0c-17.3,0-33.5,4.2-48,11.5c-4,2-343.5,198.3-343.5,198.3c-0.2,0.1-0.4,0.3-0.7,0.4
				C22.8,228.1,0.7,262.3,0,301.8h0v398.3h0.1c1,37.3,21.1,69.7,51,88c2,1.2,344.4,199.1,348,200.9c14.5,7.4,30.9,11.7,48.3,11.7
				c17.4,0,33.7-4.2,48.2-11.6c3.6-1.8,346.1-199.7,348.1-201c30.5-18.7,50.9-52.2,51-90.6C894.6,697.3,894.6,697.3,894.6,697.2
				C894.6,697.3,894.6,697.2,894.6,697.2z"/>
		</g>
	</g>
</g>
<g class="st2">
	<g>
		<g>
			<path class="st1" d="M718.6,618.6V382.1c0-24.1-13.4-45.1-33.2-56c-0.1-0.1-0.3-0.1-0.4-0.2c0,0-204-117.9-206.4-119.2
				c-8.6-4.4-18.4-6.9-28.7-6.9c-10.4,0-20.1,2.5-28.8,6.9c-2.4,1.2-206.3,119.1-206.3,119.1c-0.1,0.1-0.3,0.2-0.4,0.2
				c-19.5,10.7-32.7,31.3-33.1,55h0v239.2h0.1c0.6,22.4,12.7,41.9,30.6,52.8c1.2,0.7,206.9,119.6,209,120.7c8.7,4.5,18.5,7,29,7
				c10.4,0,20.3-2.5,29-7c2.1-1.1,207.9-120,209.1-120.7C706.3,661.9,718.5,641.7,718.6,618.6C718.6,618.7,718.6,618.6,718.6,618.6
				C718.6,618.6,718.6,618.6,718.6,618.6z"/>
		</g>
	</g>
</g>
</svg>
