<?xml version="1.0" encoding="utf-8"?>
<!-- Generator: Adobe Illustrator 25.3.1, SVG Export Plug-In . SVG Version: 6.00 Build 0)  -->
<svg version="1.1" id="레이어_1" xmlns="http://www.w3.org/2000/svg" xmlns:xlink="http://www.w3.org/1999/xlink" x="0px"
	 y="0px" viewBox="0 0 233.5 172.1" style="enable-background:new 0 0 233.5 172.1;" xml:space="preserve">
<style type="text/css">
	.st0{fill:#7D4698;}
	.st1{fill:#C8C8C8;}
	.st2{fill:#A7A7CD;}
</style>
<circle class="st0" cx="144.7" cy="119.7" r="5.9"/>
<circle class="st1" cx="216.7" cy="161.4" r="2.3"/>
<circle class="st1" cx="202.3" cy="153.1" r="2.3"/>
<circle class="st1" cx="231.1" cy="169.7" r="2.3"/>
<circle class="st1" cx="187.9" cy="144.7" r="2.3"/>
<circle class="st1" cx="173.5" cy="136.4" r="2.3"/>
<circle class="st1" cx="159.1" cy="128.1" r="2.3"/>
<path class="st2" d="M7.9,117.6L58.7,147c5.2,3,11.4,2.7,16.2-0.2c0,0,0.1,0,0.1-0.1c0,0,50.7-29.1,51.3-29.5c2-1.3,3.8-3.1,5-5.3
	c1.3-2.2,2-4.6,2.1-7c0-0.7,0.1-59.2,0.1-59.2c0,0,0-0.1,0-0.1c0.1-5.5-2.6-10.9-7.7-14l0,0L74.4,1.9l0,0c-4.9-2.7-10.6-2.5-15.2,0
	C58.9,2.1,7.8,31.5,7.3,31.8c-2,1.3-3.8,3.1-5.1,5.4c-1.3,2.2-2,4.7-2.1,7.1C0,44.9,0,103.9,0,104.2C0.1,109.6,2.9,114.7,7.9,117.6
	C7.9,117.6,7.9,117.6,7.9,117.6C7.9,117.6,7.9,117.6,7.9,117.6z"/>
</svg>
