<?xml version="1.0" encoding="utf-8"?>
<!-- Generator: Adobe Illustrator 25.3.1, SVG Export Plug-In . SVG Version: 6.00 Build 0)  -->
<svg version="1.1" id="_xB7__xB9_ÀÌ_xBE_î_1" xmlns="http://www.w3.org/2000/svg" xmlns:xlink="http://www.w3.org/1999/xlink"
	 x="0px" y="0px" viewBox="0 0 811.6 811.6" style="enable-background:new 0 0 811.6 811.6;" xml:space="preserve">
<style type="text/css">
	.st0{opacity:0.5;fill:#E5E5E6;}
	.st1{opacity:0.5;}
	.st2{fill:#FFFFFF;}
</style>
<circle class="st0" cx="405.8" cy="405.8" r="405.8"/>
<g class="st1">
	<path class="st2" d="M685.3,113l-2.7-2.7C568.8-2.6,407.3-30.3,261.1,38.2C105,111.2,14,272.6,29.2,449.3l0.7,7.9l64.6-64.6
		L44.4,536.8l156.8-141.1L73.8,612.3l190.8-181.2L106.6,671.4L685.3,113z"/>
	<path class="st2" d="M146.9,719.2l227.6-165.9L199.3,737.8l216.7-127.3L274.9,767.3L419,717l-64.6,64.6l7.9,0.7
		c127.5,11,246.9-33.3,331.1-117.4c32.5-32.5,59.7-71,80.1-114.5c68.4-146.2,40.8-307.7-72.2-421.5l-2.7-2.7L146.9,719.2z"/>
</g>
</svg>
