<?xml version="1.0" encoding="utf-8"?>
<!-- Generator: Adobe Illustrator 25.3.1, SVG Export Plug-In . SVG Version: 6.00 Build 0)  -->
<svg version="1.1" xmlns="http://www.w3.org/2000/svg" xmlns:xlink="http://www.w3.org/1999/xlink" x="0px" y="0px"
	 viewBox="0 0 91.3 91.4" style="enable-background:new 0 0 91.3 91.4;" xml:space="preserve">
<style type="text/css">
	.st0{fill:#A7A7CD;}
	.st1{fill:#2C3247;}
	.st2{fill:#7D4698;}
</style>
<g id="레이어_1">
	<g id="move">
		<g>
			<g>
				<g>
					<path class="st0" d="M89.4,55.4V35.9H79.1c-0.7-2.5-1.7-4.8-2.9-7.1l7.3-7.3L69.7,7.9l-7.3,7.3c-2.2-1.2-4.6-2.2-7.1-2.9V2
						H35.9v10.3c-2.5,0.7-4.8,1.7-7.1,2.9l-7.3-7.3L7.9,21.7l7.3,7.3c-1.2,2.2-2.2,4.6-2.9,7.1H1.9v19.4h10.3
						c0.7,2.5,1.7,4.8,2.9,7.1l-7.3,7.3l13.7,13.7l7.3-7.3c2.2,1.2,4.6,2.2,7.1,2.9v10.3h19.4V79.2c2.5-0.7,4.8-1.7,7.1-2.9l7.3,7.3
						l13.7-13.7l-7.3-7.3c1.2-2.2,2.2-4.6,2.9-7.1L89.4,55.4L89.4,55.4z M45.7,65.9c-11.2,0-20.2-9-20.2-20.2s9-20.2,20.2-20.2
						s20.2,9,20.2,20.2C65.9,56.9,56.8,65.9,45.7,65.9z"/>
					<path class="st1" d="M55.4,91.4H35.9c-1.1,0-2-0.9-2-2v-8.9c-1.6-0.6-3.2-1.2-4.7-2L23,84.8c-0.8,0.8-2.1,0.8-2.8,0L6.5,71.1
						C6.1,70.7,6,70.2,6,69.7c0-0.6,0.2-1,0.6-1.4l6.3-6.3c-0.7-1.5-1.4-3.1-2-4.7H2c-1.1,0-2-0.9-2-2V35.9c0-1.1,0.9-2,2-2h8.9
						c0.6-1.6,1.2-3.2,2-4.7l-6.3-6.3C6.2,22.5,6,22.1,6,21.5s0.2-1,0.6-1.4L20.3,6.3c0.8-0.8,2.1-0.8,2.8,0l6.2,6.4
						c1.5-0.7,3.1-1.4,4.7-2V2c0-1.1,0.9-2,2-2h19.4c1.1,0,2,0.9,2,2v8.9c1.6,0.6,3.2,1.2,4.7,2l6.3-6.3c0.8-0.8,2.1-0.8,2.8,0
						l13.7,13.6c0.8,0.8,0.8,2.1,0,2.8l-6.3,6.3c0.7,1.5,1.4,3.1,1.9,4.7h8.9c1.1,0,2,0.9,2,2v19.4c0,1.1-0.9,2-2,2h-8.9
						c-0.6,1.6-1.2,3.2-1.9,4.7l6.3,6.3c0.8,0.8,0.8,2.1,0,2.8L71.1,84.8c-0.4,0.4-0.9,0.6-1.4,0.6l0,0c-0.6,0-1-0.2-1.4-0.6
						L62,78.5c-1.5,0.8-3.1,1.4-4.7,2v8.9C57.4,90.5,56.5,91.4,55.4,91.4z M37.9,87.4h15.5v-8.3c0-0.9,0.6-1.7,1.4-1.9
						c2.3-0.6,4.5-1.6,6.7-2.8c0.8-0.4,1.7-0.3,2.4,0.3l5.9,5.9l10.9-10.9l-5.9-5.9c-0.6-0.6-0.8-1.6-0.3-2.4
						c1.2-2.1,2.1-4.4,2.8-6.7c0.2-0.9,1-1.4,1.9-1.4h8.3V37.8h-8.3c-0.9,0-1.7-0.6-1.9-1.4c-0.6-2.3-1.6-4.5-2.8-6.7
						c-0.4-0.8-0.3-1.7,0.3-2.4l5.9-5.9L69.7,10.7l-5.9,5.9c-0.6,0.6-1.6,0.8-2.4,0.3c-2.1-1.1-4.3-2.1-6.7-2.8
						c-0.9-0.2-1.4-1-1.4-1.9V4H37.9v8.3c0,0.9-0.6,1.7-1.4,1.9c-2.3,0.7-4.6,1.6-6.7,2.8c-0.8,0.4-1.7,0.3-2.4-0.3l-5.9-5.9
						L10.7,21.7l5.9,5.9c0.6,0.6,0.8,1.6,0.3,2.4c-1.2,2.1-2.1,4.4-2.8,6.7c-0.2,0.9-1,1.4-1.9,1.4H4v15.5h8.3
						c0.9,0,1.7,0.6,1.9,1.4c0.6,2.3,1.6,4.6,2.8,6.7c0.4,0.8,0.3,1.7-0.3,2.4l-5.9,5.9l10.9,10.9l5.9-5.9c0.6-0.6,1.6-0.8,2.4-0.3
						c2.1,1.2,4.4,2.1,6.7,2.8c0.9,0.2,1.4,1,1.4,1.9v8.2L37.9,87.4L37.9,87.4z M45.7,67.9c-12.2,0-22.2-10-22.2-22.2
						s10-22.2,22.2-22.2s22.2,10,22.2,22.2S57.9,67.9,45.7,67.9z M45.7,27.5c-10.1,0-18.2,8.2-18.2,18.2s8.2,18.2,18.2,18.2
						s18.2-8.2,18.2-18.2S55.7,27.5,45.7,27.5z"/>
				</g>
			</g>
			<g>
				<path class="st2" d="M58.5,45.7c0,7.1-5.7,12.8-12.8,12.8s-12.8-5.7-12.8-12.8s5.7-12.8,12.8-12.8
					C52.8,32.9,58.5,38.6,58.5,45.7z"/>
				<path class="st1" d="M45.7,60.5c-8.2,0-14.8-6.7-14.8-14.8c0-8.2,6.7-14.8,14.8-14.8c8.2,0,14.8,6.7,14.8,14.8
					C60.5,53.9,53.8,60.5,45.7,60.5z M45.7,34.9c-6,0-10.8,4.8-10.8,10.8s4.8,10.8,10.8,10.8s10.8-4.8,10.8-10.8
					S51.7,34.9,45.7,34.9z"/>
			</g>
		</g>
	</g>
</g>
<g id="레이어_2">
</g>
</svg>
