<?xml version="1.0" encoding="utf-8"?>
<!-- Generator: Adobe Illustrator 25.3.1, SVG Export Plug-In . SVG Version: 6.00 Build 0)  -->
<svg version="1.1" xmlns="http://www.w3.org/2000/svg" xmlns:xlink="http://www.w3.org/1999/xlink" x="0px" y="0px"
	 viewBox="0 0 267.3 250.6" style="enable-background:new 0 0 267.3 250.6;" xml:space="preserve">
<style type="text/css">
	.st0{fill:#E0E0E0;}
	.st1{fill:#2C3247;}
	.st2{fill:none;}
</style>
<g id="move">
</g>
<g id="none">
	<g>
		<g>
			<path class="st0" d="M224.4,198.5c0,8.9-7.2,16.1-16.1,16.1H59c-8.9,0-16.1-7.2-16.1-16.1l0,0c0-8.9,7.2-16.1,16.1-16.1h149.3
				C217.2,182.4,224.4,189.6,224.4,198.5L224.4,198.5z"/>
			<path class="st1" d="M208.3,217H59c-10.3,0-18.6-8.3-18.6-18.6s8.3-18.6,18.6-18.6h149.3c10.3,0,18.6,8.3,18.6,18.6
				S218.6,217,208.3,217z M59,184.9c-7.5,0-13.6,6.1-13.6,13.6S51.5,212,59,212h149.3c7.5,0,13.6-6.1,13.6-13.6s-6.1-13.6-13.6-13.6
				H59z"/>
		</g>
		<circle class="st1" cx="59" cy="198.5" r="4"/>
		<circle class="st1" cx="80.3" cy="198.5" r="4"/>
		<circle class="st1" cx="101.7" cy="198.5" r="4"/>
		<circle class="st1" cx="123" cy="198.5" r="4"/>
		<circle class="st1" cx="144.3" cy="198.5" r="4"/>
		<circle class="st1" cx="165.7" cy="198.5" r="4"/>
		<circle class="st1" cx="187" cy="198.5" r="4"/>
		<circle class="st1" cx="208.3" cy="198.5" r="4"/>
		<g>
			<rect x="116.6" y="138.5" class="st0" width="42.8" height="42.8"/>
			<path class="st1" d="M159.4,183.8h-42.7c-1.4,0-2.5-1.1-2.5-2.5v-42.8c0-1.4,1.1-2.5,2.5-2.5h42.7c1.4,0,2.5,1.1,2.5,2.5v42.8
				C161.9,182.6,160.8,183.8,159.4,183.8z M119.1,178.8h37.7V141h-37.7V178.8z"/>
		</g>
		<g>
			<rect x="167.6" y="138.5" class="st0" width="42.8" height="42.8"/>
			<path class="st1" d="M210.4,183.8h-42.8c-1.4,0-2.5-1.1-2.5-2.5v-42.8c0-1.4,1.1-2.5,2.5-2.5h42.8c1.4,0,2.5,1.1,2.5,2.5v42.8
				C212.9,182.6,211.8,183.8,210.4,183.8z M170.1,178.8h37.8V141h-37.8V178.8z"/>
		</g>
		<g>
			<rect x="53.2" y="36.1" class="st0" width="160.9" height="12.5"/>
			<path class="st1" d="M214.1,51.1H53.2c-1.4,0-2.5-1.1-2.5-2.5V36.1c0-1.4,1.1-2.5,2.5-2.5h160.9c1.4,0,2.5,1.1,2.5,2.5v12.5
				C216.6,49.9,215.5,51.1,214.1,51.1z M55.7,46.1h155.9v-7.5H55.7V46.1z"/>
		</g>
		<rect class="st2" width="267.3" height="250.6"/>
	</g>
</g>
</svg>
