<?xml version="1.0" encoding="utf-8"?>
<!-- Generator: Adobe Illustrator 25.3.1, SVG Export Plug-In . SVG Version: 6.00 Build 0)  -->
<svg version="1.1" id="레이어_1" xmlns="http://www.w3.org/2000/svg" xmlns:xlink="http://www.w3.org/1999/xlink" x="0px"
	 y="0px" viewBox="0 0 468.2 5" style="enable-background:new 0 0 468.2 5;" xml:space="preserve">
<style type="text/css">
	.st0{fill:#2C3247;}
</style>
<g id="move">
	<path class="st0" d="M229.1,5H220V0h9.1V5z M210,5h-10V0h10V5z M190,5h-10V0h10V5z M170,5h-10V0h10V5z M150,5h-10V0h10V5z M130,5
		h-10V0h10V5z M110,5h-10V0h10V5z M90,5H80V0h10V5z M70,5H60V0h10V5z M50,5H40V0h10V5z M30,5H20V0h10V5z M10,5H0V0h10V5z"/>
</g>
<g id="move_1_">
	<path class="st0" d="M468.2,5h-9.1V0h9.1V5z M449.1,5h-10V0h10V5z M429.1,5h-10V0h10V5z M409.1,5h-10V0h10V5z M389.1,5h-10V0h10V5z
		 M369.1,5h-10V0h10V5z M349.1,5h-10V0h10V5z M329.1,5h-10V0h10V5z M309.1,5h-10V0h10V5z M289.1,5h-10V0h10V5z M269.1,5h-10V0h10V5z
		 M249.1,5h-10V0h10V5z"/>
</g>
</svg>
