<?xml version="1.0" encoding="utf-8"?>
<!-- Generator: Adobe Illustrator 25.3.1, SVG Export Plug-In . SVG Version: 6.00 Build 0)  -->
<svg version="1.1" id="move" xmlns="http://www.w3.org/2000/svg" xmlns:xlink="http://www.w3.org/1999/xlink" x="0px" y="0px"
	 viewBox="0 0 267.3 250.6" style="enable-background:new 0 0 267.3 250.6;" xml:space="preserve">
<style type="text/css">
	.st0{fill:#FFFFFF;}
	.st1{fill:#2C3247;}
	.st2{fill:#7D4698;}
	.st3{fill:#A7A7CD;}
</style>
<g>
	<rect x="82.6" y="37.3" class="st0" width="7.4" height="28.2"/>
	<path class="st1" d="M90,68h-7.4c-1.4,0-2.5-1.1-2.5-2.5V37.3c0-1.4,1.1-2.5,2.5-2.5H90c1.4,0,2.5,1.1,2.5,2.5v28.2
		C92.5,66.9,91.4,68,90,68z M85.1,63h2.4V39.8h-2.4V63z"/>
</g>
<g>
	<g>
		<rect x="65" y="108.6" class="st2" width="42.8" height="42.8"/>
		<path class="st1" d="M107.7,153.8H65c-1.4,0-2.5-1.1-2.5-2.5v-42.8c0-1.4,1.1-2.5,2.5-2.5h42.8c1.4,0,2.5,1.1,2.5,2.5v42.8
			C110.2,152.7,109.1,153.8,107.7,153.8z M67.5,148.8h37.8v-37.8H67.5V148.8z"/>
	</g>
	<g>
		<polygon class="st1" points="64.3,121 50.3,103.5 56.5,100.7 65.8,120 		"/>
		<g>
			<polygon class="st0" points="73.2,87 50.4,106.2 46.6,98.9 69.3,79.7 			"/>
			<path class="st1" d="M49.7,108.6c-0.7-0.2-1.2-0.6-1.5-1.2l-3.8-7.2c-0.6-1-0.3-2.3,0.6-3.1l22.8-19.2c0.6-0.5,1.3-0.7,2.1-0.5
				c0.7,0.1,1.4,0.6,1.7,1.3l3.8,7.2c0.6,1,0.3,2.3-0.6,3.1L52,108.1c-0.6,0.5-1.3,0.7-2.1,0.5C49.9,108.6,49.8,108.6,49.7,108.6z
				 M49.7,99.6l1.4,2.7L70,86.4l-1.4-2.7L49.7,99.6z"/>
		</g>
	</g>
	<g>
		<polygon class="st1" points="108.7,121 122.7,103.5 116.5,100.7 107.2,120 		"/>
		<g>
			<polygon class="st0" points="99.8,87 122.6,106.2 126.4,98.9 103.7,79.7 			"/>
			<path class="st1" d="M123.1,108.6c-0.7,0.1-1.5-0.1-2.1-0.5L98.2,88.9c-0.9-0.8-1.1-2-0.6-3.1l3.8-7.2c0.4-0.7,1-1.1,1.7-1.3
				c0.7-0.1,1.5,0.1,2.1,0.5L128,97c0.9,0.8,1.1,2,0.6,3.1l-3.8,7.2c-0.3,0.6-0.9,1-1.5,1.2C123.2,108.6,123.1,108.6,123.1,108.6z
				 M104.4,83.6l-1.4,2.7l18.9,15.9l1.4-2.7L104.4,83.6z"/>
		</g>
	</g>
	<g>
		<path class="st2" d="M101.8,81.1c0,8.6-7,15.5-15.5,15.5c-8.6,0-15.5-7-15.5-15.5c0-8.6,7-15.5,15.5-15.5
			C94.9,65.5,101.8,72.5,101.8,81.1z"/>
		<path class="st1" d="M86.3,99.1c-9.9,0-18-8.1-18-18c0-9.9,8.1-18,18-18c9.9,0,18,8.1,18,18C104.3,91,96.2,99.1,86.3,99.1z
			 M86.3,68c-7.2,0-13,5.9-13,13c0,7.2,5.8,13,13,13c7.2,0,13-5.9,13-13C99.3,73.9,93.5,68,86.3,68z"/>
	</g>
	<g>
		<path class="st3" d="M93.8,81.1c0,4.2-3.4,7.5-7.5,7.5c-4.2,0-7.5-3.4-7.5-7.5c0-4.2,3.4-7.5,7.5-7.5
			C90.4,73.5,93.8,76.9,93.8,81.1z"/>
		<path class="st1" d="M86.3,91.1c-5.5,0-10-4.5-10-10c0-5.5,4.5-10,10-10c5.5,0,10,4.5,10,10C96.3,86.6,91.8,91.1,86.3,91.1z
			 M86.3,76c-2.8,0-5,2.3-5,5c0,2.8,2.3,5,5,5c2.8,0,5-2.3,5-5C91.3,78.3,89.1,76,86.3,76z"/>
	</g>
</g>
</svg>
