<?xml version="1.0" encoding="utf-8"?>
<!-- Generator: Adobe Illustrator 25.3.1, SVG Export Plug-In . SVG Version: 6.00 Build 0)  -->
<svg version="1.1" id="레이어_1" xmlns="http://www.w3.org/2000/svg" xmlns:xlink="http://www.w3.org/1999/xlink" x="0px"
	 y="0px" viewBox="0 0 267.3 250.6" style="enable-background:new 0 0 267.3 250.6;" xml:space="preserve">
<style type="text/css">
	.st0{fill:none;}
	.st1{clip-path:url(#SVGID_2_);}
	.st2{fill:#A7A7CD;}
	.st3{fill:#7D4698;}
	.st4{fill:#2C3247;}
</style>
<g id="레이어_1_1_">
	<g>
		<rect class="st0" width="267.3" height="250.6"/>
		<g>
			<defs>
				<polygon id="SVGID_1_" points="67.6,24.8 29.3,66.1 42.9,81.1 104,84.9 103.9,199.1 93.5,227.7 131,227.7 165,225.1 
					160.2,143.6 160.2,106.7 168.8,76.6 224.9,69.9 226.9,61.4 195.4,29.3 132.2,22.9 				"/>
			</defs>
			<clipPath id="SVGID_2_">
				<use xlink:href="#SVGID_1_"  style="overflow:visible;"/>
			</clipPath>
			<g class="st1">
				<path class="st2" d="M188.1,40.8c-13.2-5.9-27.6-4.8-41.7-4.8c-15.1,0-30.3,0-45.4,0c-5,0-7.4-0.4-7.4,5.7c0,6.3,0,12.5,0,18.8
					c0,2-1.7,3.6-3.6,3.6c-10.4,0-20.7,0-31.1,0c11.4,12.1,33.5,8.2,48.8,8.3c1,0,1.8,0.4,2.4,0.9c0.7,0.6,1.2,1.5,1.2,2.7
					c0,4,0,7.9,0,11.9c4.6,0,9.3,0,13.9,0c4.7,0,4.7,7.2,0,7.2c-4.6,0-9.3,0-13.9,0c0,4,0,7.9,0,11.9c4.6,0,9.3,0,13.9,0
					c4.7,0,4.7,7.2,0,7.2c-4.6,0-9.3,0-13.9,0c0,4,0,7.9,0,11.9c4.6,0,9.3,0,13.9,0c4.7,0,4.7,7.2,0,7.2c-4.6,0-9.3,0-13.9,0
					c0,4,0,7.9,0,11.9c4.6,0,9.3,0,13.9,0c4.7,0,4.7,7.2,0,7.2c-4.6,0-9.3,0-13.9,0c0,4,0,7.9,0,11.9c4.6,0,9.3,0,13.9,0
					c4.7,0,4.7,7.2,0,7.2c-4.6,0-9.3,0-13.9,0c0,6.9,0,13.7,0,20.6c0,1.1,0,2.1,0,3.2c0,4.1,0,8.2,0,12.3c0,1.8-0.8,5.6,0,7.3
					c1.6,3.6,8.1,2.2,11.4,2.2c7.5,0,15,0,22.5,0c3.4,0,6.6,0.8,7.8-2.8c0.7-2.4,0-6.4,0-8.9c0-47,0-94,0-141c0-2,1.7-3.6,3.6-3.6
					c19.1,0,38.2,0,57.3,0C207.1,52.3,197.8,45.1,188.1,40.8z"/>
				<path class="st3" d="M63.9,103.7c9.4,0,18.7,0,28.1,0c2,0,3.6,1.7,3.6,3.6c0,28.2,0,56.3,0,84.5c2.8,0,5.6,0,8.5,0
					c0-16,0-32,0-47.9c0-16.2,0-32.4,0-48.6c-7.7,0-15.4,0-23.1,0C74.1,95.2,68.2,98.7,63.9,103.7z"/>
				<path class="st3" d="M160.2,135.7c10.1,0.2,20.5,1,30.4,0c11.4-1.2,21.7-11.3,27.1-21.7c-19.2,0-38.3,0-57.5,0
					C160.2,121.2,160.2,128.4,160.2,135.7z"/>
				<path class="st4" d="M223.2,106.7c-21,0-42,0-63,0c0-12.8,0-25.7,0-38.5c20.2,0,40.5,0,60.7,0c2.7,0,4.6-3.1,3.1-5.5
					c-13.4-21.4-36.9-34-61.9-34c-12.6,0-25.1,0-37.7,0c-9.5,0-19.6-1-29,0c-12,1.3-9.9,17.8-9.2,28.1c-11.4,0-22.9,0-34.3,0
					c-2.9,0-4.3,3-3.1,5.5C59.2,82.9,84.2,80,104,79.6c0,2.8,0,5.6,0,8.4c-7.7,0-15.4,0-23.1,0c-11.7-0.2-21.6,7.5-27.1,17.4
					c-1.3,2.4,0.3,5.5,3.1,5.5c10.5,0,20.9,0,31.4,0c0,28.2,0,56.3,0,84.5c0,2,1.7,3.6,3.6,3.6c4,0,8,0,11.9,0
					c-0.2,5.4-0.4,11,0.1,16.2c1.4,13.2,20.8,9.1,29.9,9.1c9,0,25.1,3.4,26.3-9.4c0.7-7.9,0-16.3,0-24.2c0-15.7,0-31.5,0-47.2
					c0-0.2,0-0.4,0-0.6c11.1,0.3,23.2,1.6,33.9-0.5c15-2.9,27.5-17.4,32.6-31.2C227.5,109,225.4,106.7,223.2,106.7z M104,143.9
					c0,16,0,32,0,47.9c-2.8,0-5.6,0-8.5,0c0-28.2,0-56.3,0-84.5c0-2-1.7-3.6-3.6-3.6c-9.4,0-18.7,0-28.1,0c4.3-5,10.2-8.5,17.1-8.4
					c7.7,0,15.4,0,23.1,0C104,111.5,104,127.7,104,143.9z M156.6,60.9c-2,0-3.6,1.7-3.6,3.6c0,47,0,94,0,141c0,2.5,0.7,6.5,0,8.9
					c-1.1,3.6-4.4,2.8-7.8,2.8c-7.5,0-15,0-22.5,0c-3.4,0-9.8,1.4-11.4-2.2c-0.8-1.7,0-5.5,0-7.3c0-4.1,0-8.2,0-12.3
					c0-1.1,0-2.1,0-3.2c0-6.9,0-13.7,0-20.6c4.6,0,9.3,0,13.9,0c4.7,0,4.7-7.2,0-7.2c-4.6,0-9.3,0-13.9,0c0-4,0-7.9,0-11.9
					c4.6,0,9.3,0,13.9,0c4.7,0,4.7-7.2,0-7.2c-4.6,0-9.3,0-13.9,0c0-4,0-7.9,0-11.9c4.6,0,9.3,0,13.9,0c4.7,0,4.7-7.2,0-7.2
					c-4.6,0-9.3,0-13.9,0c0-4,0-7.9,0-11.9c4.6,0,9.3,0,13.9,0c4.7,0,4.7-7.2,0-7.2c-4.6,0-9.3,0-13.9,0c0-4,0-7.9,0-11.9
					c4.6,0,9.3,0,13.9,0c4.7,0,4.7-7.2,0-7.2c-4.6,0-9.3,0-13.9,0c0-4,0-7.9,0-11.9c0-1.2-0.5-2.1-1.2-2.7c-0.6-0.6-1.4-0.9-2.4-0.9
					c-15.2-0.1-37.4,3.8-48.8-8.3c10.4,0,20.7,0,31.1,0c2,0,3.6-1.7,3.6-3.6c0-6.3,0-12.5,0-18.8c0-6.1,2.4-5.7,7.4-5.7
					c15.1,0,30.3,0,45.4,0c14.1,0,28.5-1.1,41.7,4.8c9.7,4.4,19,11.5,25.8,20.1C194.8,60.9,175.7,60.9,156.6,60.9z M190.6,135.7
					c-9.9,1-20.3,0.2-30.4,0c0-7.3,0-14.5,0-21.8c19.2,0,38.3,0,57.5,0C212.3,124.4,202,134.5,190.6,135.7z"/>
			</g>
		</g>
	</g>
</g>
</svg>
