<?xml version="1.0" encoding="utf-8"?>
<!-- Generator: Adobe Illustrator 25.3.1, SVG Export Plug-In . SVG Version: 6.00 Build 0)  -->
<svg version="1.1" id="레이어_1" xmlns="http://www.w3.org/2000/svg" xmlns:xlink="http://www.w3.org/1999/xlink" x="0px"
	 y="0px" viewBox="0 0 86.4 107.4" style="enable-background:new 0 0 86.4 107.4;" xml:space="preserve">
<style type="text/css">
	.st0{fill:#FFFFFF;}
	.st1{fill:#FF5757;}
</style>
<g>
	<g>
		<path class="st0" d="M43.2,93.7c-0.6,0-1.2-0.2-1.7-0.5C40,92.1,4.2,67.1,4.2,39c0-21.5,17.5-39,39-39c21.5,0,39,17.5,39,39
			c0,29.2-35.8,53.2-37.3,54.2C44.4,93.5,43.8,93.7,43.2,93.7z M43.2,6c-18.2,0-33,14.8-33,33c0,21.7,26.1,42.8,33,48
			c7-5,32.9-25.4,32.9-48C76.2,20.8,61.4,6,43.2,6z"/>
		<path class="st0" d="M43.2,56.4c-12.4,0-22.4-10.1-22.4-22.4c0-12.4,10.1-22.4,22.4-22.4S65.6,21.6,65.6,34
			C65.6,46.3,55.6,56.4,43.2,56.4z M43.2,17.6c-9,0-16.4,7.4-16.4,16.4s7.4,16.4,16.4,16.4c9,0,16.4-7.4,16.4-16.4
			S52.3,17.6,43.2,17.6z"/>
		<circle class="st1" cx="43.2" cy="34" r="9"/>
		<path class="st0" d="M83.4,107.4H3c-0.9,0-1.8-0.4-2.3-1.1c-0.6-0.7-0.8-1.6-0.6-2.5l5.9-27.4c0.3-1.4,1.5-2.4,2.9-2.4h18.3
			c1.7,0,3,1.3,3,3s-1.3,3-3,3H11.3l-4.6,21.4h73l-4.6-21.4H59.6c-1.7,0-3-1.3-3-3s1.3-3,3-3h18c1.4,0,2.6,1,2.9,2.4l5.9,27.4
			c0.2,0.9,0,1.8-0.6,2.5C85.2,107,84.3,107.4,83.4,107.4z"/>
	</g>
</g>
</svg>
