<?xml version="1.0" encoding="utf-8"?>
<!-- Generator: Adobe Illustrator 25.3.1, SVG Export Plug-In . SVG Version: 6.00 Build 0)  -->
<svg version="1.1" id="레이어_1" xmlns="http://www.w3.org/2000/svg" xmlns:xlink="http://www.w3.org/1999/xlink" x="0px"
	 y="0px" viewBox="0 0 95.6 114.1" style="enable-background:new 0 0 95.6 114.1;" xml:space="preserve">
<style type="text/css">
	.st0{fill:#7D4698;}
	.st1{fill:#FF5757;}
</style>
<g>
	<g>
		<path class="st0" d="M71.4,114.1c-13.3,0-24.2-10.9-24.2-24.2c0-13.3,10.9-24.2,24.2-24.2c13.3,0,24.2,10.9,24.2,24.2
			C95.6,103.2,84.7,114.1,71.4,114.1z M71.4,71.6c-10,0-18.2,8.2-18.2,18.2c0,10,8.2,18.2,18.2,18.2c10,0,18.2-8.2,18.2-18.2
			C89.6,79.8,81.4,71.6,71.4,71.6z"/>
		<path class="st0" d="M53,104.5H5c-2.8,0-5-2.2-5-5V5c0-2.8,2.2-5,5-5h74.3c2.8,0,5,2.2,5,5v66.1c0,1.7-1.3,3-3,3s-3-1.3-3-3V6H6
			v92.5h47c1.7,0,3,1.3,3,3C56,103.1,54.7,104.5,53,104.5z"/>
		<path class="st1" d="M70.6,98.1c-0.7,0-1.3-0.3-1.8-0.7L60,88.5c-1-1-1-2.6,0-3.5c1-1,2.6-1,3.5,0l7.1,7.1l10.6-10.6
			c1-1,2.6-1,3.5,0c1,1,1,2.6,0,3.5L72.3,97.4C71.9,97.8,71.2,98.1,70.6,98.1z"/>
		<path class="st0" d="M64.3,30.5H20c-1.7,0-3-1.3-3-3s1.3-3,3-3h44.3c1.7,0,3,1.3,3,3S66,30.5,64.3,30.5z"/>
		<path class="st0" d="M64.3,46H20c-1.7,0-3-1.3-3-3s1.3-3,3-3h44.3c1.7,0,3,1.3,3,3S66,46,64.3,46z"/>
		<path class="st0" d="M64.3,61.5H20c-1.7,0-3-1.3-3-3s1.3-3,3-3h44.3c1.7,0,3,1.3,3,3S66,61.5,64.3,61.5z"/>
		<path class="st0" d="M43.6,77H20c-1.7,0-3-1.3-3-3c0-1.7,1.3-3,3-3h23.6c1.7,0,3,1.3,3,3C46.6,75.6,45.2,77,43.6,77z"/>
	</g>
</g>
</svg>
